<?xml version="1.0" encoding="utf-8"?>
<!-- Generator: Adobe Illustrator 17.0.0, SVG Export Plug-In . SVG Version: 6.00 Build 0)  -->
<!DOCTYPE svg PUBLIC "-//W3C//DTD SVG 1.1//EN" "http://www.w3.org/Graphics/SVG/1.1/DTD/svg11.dtd">
<svg version="1.1" id="Layer_1" xmlns="http://www.w3.org/2000/svg" xmlns:xlink="http://www.w3.org/1999/xlink" x="0px" y="0px"
	 width="1206px" height="92.833px" viewBox="0 0 1206 92.833" enable-background="new 0 0 1206 92.833" xml:space="preserve">
<g id="Background">
	<rect x="0" fill="#FFFFFF" width="1206" height="92.833"/>
</g>
<g>
	<polygon fill="none" stroke="#000000" stroke-miterlimit="10" points="1200.564,88.666 696.666,88.666 696.666,15.936 
		740.302,15.936 740.302,4.666 1200.564,4.666 	"/>
	<path id="fullButton" fill="#D8D8D8" stroke="#595959" stroke-miterlimit="3.8636" d="M1174.25,80.833h-101.5c-3.314,0-6-2.686-6-6
		v-45.5c0-3.314,2.686-6,6-6h101.5c3.314,0,6,2.686,6,6v45.5C1180.25,78.147,1177.563,80.833,1174.25,80.833z"/>
	<g>
		<path fill="#595959" d="M1071.19,56.815V45.268h7.915v1.954h-5.584v2.733h4.82v1.954h-4.82v4.906L1071.19,56.815L1071.19,56.815z"
			/>
		<path fill="#595959" d="M1081.011,45.268h2.331v6.255c0,0.992,0.029,1.635,0.087,1.93c0.099,0.472,0.336,0.852,0.713,1.138
			c0.375,0.287,0.888,0.429,1.541,0.429c0.662,0,1.16-0.135,1.497-0.406c0.335-0.27,0.538-0.603,0.606-0.996
			c0.068-0.394,0.102-1.047,0.102-1.961v-6.388h2.331v6.066c0,1.386-0.063,2.365-0.189,2.939c-0.126,0.572-0.359,1.055-0.697,1.45
			c-0.338,0.394-0.792,0.707-1.359,0.941c-0.566,0.233-1.307,0.35-2.221,0.35c-1.103,0-1.939-0.127-2.509-0.381
			c-0.57-0.255-1.02-0.586-1.351-0.993c-0.331-0.407-0.548-0.834-0.653-1.28c-0.153-0.662-0.229-1.638-0.229-2.93L1081.011,45.268
			L1081.011,45.268z"/>
		<path fill="#595959" d="M1092.74,56.815V45.362h2.331v9.507h5.797v1.945H1092.74z"/>
		<path fill="#595959" d="M1102.593,56.815V45.362h2.331v9.507h5.797v1.945H1102.593z"/>
		<path fill="#595959" d="M1111.794,53.057l2.269-0.22c0.137,0.762,0.413,1.32,0.831,1.678c0.417,0.357,0.981,0.535,1.69,0.535
			c0.751,0,1.317-0.159,1.698-0.477c0.381-0.318,0.571-0.689,0.571-1.114c0-0.273-0.08-0.505-0.24-0.697
			c-0.16-0.191-0.44-0.358-0.84-0.499c-0.273-0.095-0.895-0.262-1.867-0.504c-1.25-0.31-2.127-0.691-2.631-1.142
			c-0.709-0.635-1.064-1.41-1.064-2.323c0-0.588,0.167-1.139,0.5-1.651c0.333-0.512,0.813-0.901,1.441-1.169
			c0.628-0.268,1.385-0.402,2.272-0.402c1.45,0,2.54,0.318,3.273,0.954c0.732,0.635,1.116,1.483,1.153,2.544l-2.331,0.102
			c-0.099-0.594-0.314-1.02-0.643-1.28c-0.328-0.26-0.82-0.39-1.477-0.39c-0.677,0-1.208,0.139-1.59,0.417
			c-0.247,0.178-0.371,0.417-0.371,0.717c0,0.274,0.115,0.507,0.347,0.702c0.293,0.246,1.008,0.503,2.142,0.771
			c1.135,0.268,1.972,0.545,2.517,0.831c0.543,0.287,0.969,0.678,1.276,1.174c0.307,0.496,0.46,1.109,0.46,1.839
			c0,0.662-0.184,1.281-0.551,1.858c-0.368,0.577-0.887,1.006-1.56,1.288c-0.672,0.281-1.51,0.422-2.512,0.422
			c-1.461,0-2.582-0.337-3.364-1.012C1112.413,55.333,1111.946,54.35,1111.794,53.057z"/>
		<path fill="#595959" d="M1130.403,52.664l2.254,0.715c-0.345,1.256-0.92,2.189-1.724,2.799c-0.803,0.61-1.823,0.915-3.058,0.915
			c-1.529,0-2.785-0.522-3.769-1.567s-1.476-2.472-1.476-4.283c0-1.916,0.495-3.404,1.484-4.464s2.29-1.59,3.903-1.59
			c1.408,0,2.552,0.416,3.431,1.248c0.523,0.492,0.916,1.199,1.178,2.12l-2.301,0.55c-0.136-0.597-0.42-1.068-0.852-1.413
			c-0.432-0.345-0.957-0.518-1.574-0.518c-0.853,0-1.546,0.306-2.077,0.919s-0.797,1.604-0.797,2.976
			c0,1.455,0.262,2.492,0.785,3.109c0.524,0.618,1.204,0.927,2.042,0.927c0.618,0,1.149-0.196,1.594-0.589
			S1130.209,53.507,1130.403,52.664z"/>
		<path fill="#595959" d="M1134.636,56.815V45.268h4.907c1.233,0,2.13,0.104,2.689,0.311c0.559,0.208,1.006,0.576,1.344,1.108
			c0.336,0.529,0.504,1.137,0.504,1.819c0,0.867-0.255,1.582-0.764,2.147c-0.51,0.565-1.271,0.919-2.285,1.067
			c0.504,0.293,0.92,0.617,1.249,0.969c0.328,0.351,0.77,0.976,1.327,1.874l1.41,2.253h-2.789l-1.686-2.513
			c-0.599-0.898-1.008-1.464-1.229-1.698c-0.22-0.233-0.454-0.394-0.701-0.481c-0.247-0.086-0.638-0.13-1.174-0.13h-0.472v4.821
			L1134.636,56.815L1134.636,56.815z M1136.967,50.151h1.725c1.118,0,1.816-0.048,2.095-0.141c0.278-0.095,0.496-0.257,0.653-0.488
			c0.157-0.23,0.236-0.52,0.236-0.866c0-0.389-0.103-0.703-0.311-0.942c-0.207-0.239-0.499-0.39-0.878-0.453
			c-0.189-0.026-0.757-0.039-1.702-0.039h-1.819L1136.967,50.151L1136.967,50.151z"/>
		<path fill="#595959" d="M1146.279,56.815V45.268h8.562v1.954h-6.23v2.559h5.797v1.946h-5.797v3.143h6.452v1.945L1146.279,56.815
			L1146.279,56.815z"/>
		<path fill="#595959" d="M1157.038,56.815V45.268h8.562v1.954h-6.23v2.559h5.797v1.946h-5.797v3.143h6.452v1.945L1157.038,56.815
			L1157.038,56.815z"/>
		<path fill="#595959" d="M1167.82,56.815V45.268h2.269l4.726,7.711v-7.711h2.166v11.547h-2.34l-4.655-7.53v7.53H1167.82z"/>
	</g>
	<path id="fullButtonSelect" opacity="0" fill="#FFFFFF" d="M1174.25,80.833h-101.5c-3.314,0-6-2.686-6-6v-45.5c0-3.314,2.686-6,6-6
		h101.5c3.314,0,6,2.686,6,6v45.5C1180.25,78.147,1177.563,80.833,1174.25,80.833z"/>
	<path id="mergeButton" fill="#D8D8D8" stroke="#595959" stroke-miterlimit="3.8636" d="M1032.771,80.833H859.729
		c-5.649,0-10.229-2.686-10.229-6v-45.5c0-3.314,4.58-6,10.229-6h173.042c5.649,0,10.229,2.686,10.229,6v45.5
		C1043,78.147,1038.42,80.833,1032.771,80.833z"/>
	<text id="mergeButtonOff" transform="matrix(1 0 0 1 936.1122 67.6464)"><tspan x="0" y="0" fill="#595959" font-family="'ArialMT'" font-size="15.6457">O</tspan><tspan x="12.17" y="0" fill="#595959" font-family="'ArialMT'" font-size="15.6457">f</tspan><tspan x="16.234" y="0" fill="#595959" font-family="'ArialMT'" font-size="15.6457">f</tspan></text>
	
		<text id="mergeButtonOn" transform="matrix(1 0 0 1 935.8138 67.6467)" opacity="0" fill="#595959" font-family="'ArialMT'" font-size="15.6457">On</text>
	<g>
		<path fill="#595959" d="M857.568,46.583V34.26h3.724l2.236,8.406l2.211-8.406h3.731v12.323h-2.312v-9.7l-2.446,9.7h-2.396
			l-2.438-9.7v9.7H857.568z"/>
		<path fill="#595959" d="M871.942,46.583V34.26h9.137v2.085h-6.649v2.731h6.187v2.077h-6.187v3.354h6.885v2.076L871.942,46.583
			L871.942,46.583z"/>
		<path fill="#595959" d="M883.432,46.583V34.26h5.237c1.316,0,2.273,0.111,2.87,0.332c0.597,0.222,1.074,0.615,1.434,1.182
			c0.358,0.565,0.538,1.213,0.538,1.941c0,0.925-0.272,1.688-0.815,2.291c-0.544,0.603-1.356,0.981-2.438,1.139
			c0.538,0.313,0.982,0.658,1.333,1.034c0.35,0.375,0.822,1.042,1.416,2l1.505,2.404h-2.976l-1.799-2.682
			c-0.639-0.958-1.076-1.562-1.312-1.812c-0.235-0.249-0.484-0.42-0.748-0.513c-0.264-0.092-0.681-0.139-1.253-0.139h-0.504v5.145
			h-2.488V46.583z M885.92,39.472h1.841c1.193,0,1.938-0.051,2.236-0.151c0.297-0.101,0.529-0.274,0.697-0.521
			c0.168-0.246,0.252-0.555,0.252-0.924c0-0.415-0.11-0.75-0.332-1.005c-0.221-0.255-0.533-0.416-0.937-0.483
			c-0.202-0.028-0.808-0.042-1.816-0.042h-1.941L885.92,39.472L885.92,39.472z"/>
		<path fill="#595959" d="M901.589,42.053v-2.077h5.362v4.909c-0.521,0.505-1.276,0.949-2.265,1.333
			c-0.989,0.384-1.991,0.575-3.005,0.575c-1.289,0-2.413-0.271-3.371-0.811c-0.958-0.541-1.679-1.314-2.16-2.32
			c-0.482-1.006-0.723-2.101-0.723-3.282c0-1.283,0.269-2.424,0.807-3.422c0.538-0.997,1.325-1.762,2.362-2.294
			c0.79-0.409,1.773-0.614,2.95-0.614c1.529,0,2.725,0.321,3.585,0.963s1.413,1.528,1.66,2.66l-2.472,0.462
			c-0.174-0.604-0.5-1.082-0.979-1.433s-1.078-0.525-1.795-0.525c-1.088,0-1.952,0.345-2.594,1.034
			c-0.642,0.688-0.962,1.712-0.962,3.067c0,1.463,0.325,2.56,0.975,3.291c0.65,0.731,1.502,1.097,2.556,1.097
			c0.521,0,1.044-0.102,1.567-0.307c0.524-0.204,0.974-0.452,1.35-0.743v-1.563H901.589z"/>
		<path fill="#595959" d="M909.248,46.583V34.26h9.137v2.085h-6.649v2.731h6.187v2.077h-6.187v3.354h6.885v2.076L909.248,46.583
			L909.248,46.583z"/>
		<path fill="#595959" d="M924.881,42.573l2.421-0.235c0.146,0.813,0.441,1.409,0.887,1.791c0.445,0.381,1.047,0.571,1.803,0.571
			c0.802,0,1.405-0.17,1.812-0.509s0.609-0.735,0.609-1.189c0-0.291-0.085-0.539-0.256-0.744c-0.171-0.204-0.47-0.382-0.896-0.533
			c-0.291-0.101-0.955-0.28-1.992-0.538c-1.334-0.331-2.27-0.737-2.808-1.219c-0.757-0.678-1.135-1.505-1.135-2.479
			c0-0.628,0.178-1.215,0.534-1.762c0.355-0.546,0.868-0.962,1.538-1.248s1.478-0.429,2.425-0.429c1.547,0,2.711,0.339,3.493,1.018
			c0.781,0.678,1.191,1.583,1.231,2.715l-2.488,0.109c-0.106-0.634-0.335-1.089-0.686-1.366c-0.35-0.277-0.875-0.416-1.576-0.416
			c-0.723,0-1.289,0.148-1.697,0.445c-0.264,0.19-0.396,0.445-0.396,0.765c0,0.292,0.123,0.541,0.37,0.749
			c0.313,0.263,1.076,0.537,2.286,0.823c1.211,0.286,2.105,0.582,2.686,0.887c0.58,0.306,1.034,0.723,1.362,1.253
			c0.327,0.529,0.491,1.184,0.491,1.963c0,0.706-0.196,1.367-0.588,1.983c-0.393,0.616-0.947,1.074-1.665,1.374
			c-0.717,0.3-1.611,0.45-2.681,0.45c-1.559,0-2.755-0.36-3.59-1.08C925.542,45.001,925.043,43.953,924.881,42.573z"/>
		<path fill="#595959" d="M939.768,46.583V36.346h-3.656V34.26h9.793v2.085h-3.648v10.238H939.768z"/>
		<path fill="#595959" d="M947.518,46.583V34.26h5.237c1.316,0,2.273,0.111,2.87,0.332c0.597,0.222,1.074,0.615,1.434,1.182
			c0.358,0.565,0.538,1.213,0.538,1.941c0,0.925-0.272,1.688-0.815,2.291c-0.544,0.603-1.356,0.981-2.438,1.139
			c0.538,0.313,0.982,0.658,1.333,1.034c0.35,0.375,0.822,1.042,1.416,2l1.505,2.404h-2.976l-1.799-2.682
			c-0.639-0.958-1.076-1.562-1.312-1.812c-0.235-0.249-0.484-0.42-0.748-0.513c-0.264-0.092-0.681-0.139-1.253-0.139h-0.504v5.145
			h-2.488V46.583z M950.006,39.472h1.841c1.193,0,1.938-0.051,2.236-0.151c0.297-0.101,0.529-0.274,0.697-0.521
			c0.168-0.246,0.252-0.555,0.252-0.924c0-0.415-0.11-0.75-0.332-1.005c-0.221-0.255-0.533-0.416-0.937-0.483
			c-0.202-0.028-0.808-0.042-1.816-0.042h-1.941L950.006,39.472L950.006,39.472z"/>
		<path fill="#595959" d="M959.925,34.26h2.488v6.675c0,1.059,0.031,1.745,0.093,2.06c0.106,0.504,0.359,0.909,0.761,1.214
			c0.4,0.306,0.948,0.458,1.644,0.458c0.706,0,1.238-0.144,1.597-0.433c0.358-0.288,0.574-0.643,0.647-1.063
			c0.072-0.42,0.109-1.117,0.109-2.093v-6.817h2.488v6.473c0,1.479-0.067,2.524-0.202,3.136c-0.135,0.61-0.383,1.126-0.744,1.547
			c-0.361,0.42-0.845,0.755-1.45,1.004c-0.604,0.249-1.395,0.374-2.37,0.374c-1.177,0-2.069-0.136-2.677-0.407
			c-0.608-0.272-1.089-0.625-1.442-1.06c-0.353-0.434-0.585-0.89-0.697-1.366c-0.163-0.706-0.244-1.748-0.244-3.127L959.925,34.26
			L959.925,34.26z"/>
		<path fill="#595959" d="M980.258,42.053l2.413,0.765c-0.37,1.345-0.985,2.344-1.846,2.996c-0.86,0.653-1.951,0.979-3.273,0.979
			c-1.637,0-2.981-0.559-4.035-1.677s-1.58-2.646-1.58-4.585c0-2.052,0.529-3.645,1.589-4.779c1.059-1.135,2.451-1.702,4.178-1.702
			c1.507,0,2.731,0.445,3.673,1.337c0.561,0.526,0.98,1.283,1.261,2.27l-2.463,0.588c-0.146-0.639-0.449-1.143-0.912-1.513
			c-0.462-0.37-1.023-0.555-1.685-0.555c-0.914,0-1.655,0.328-2.224,0.983c-0.569,0.655-0.854,1.718-0.854,3.186
			c0,1.559,0.28,2.668,0.841,3.329s1.289,0.991,2.186,0.991c0.661,0,1.229-0.21,1.706-0.63S980.051,42.956,980.258,42.053z"/>
		<path fill="#595959" d="M987.581,46.583V36.346h-3.656V34.26h9.793v2.085h-3.648v10.238H987.581z"/>
		<path fill="#595959" d="M995.305,34.26h2.488v6.675c0,1.059,0.031,1.745,0.093,2.06c0.106,0.504,0.359,0.909,0.761,1.214
			c0.4,0.306,0.948,0.458,1.644,0.458c0.706,0,1.238-0.144,1.597-0.433c0.358-0.288,0.574-0.643,0.647-1.063
			c0.072-0.42,0.109-1.117,0.109-2.093v-6.817h2.488v6.473c0,1.479-0.067,2.524-0.202,3.136c-0.135,0.61-0.383,1.126-0.744,1.547
			c-0.361,0.42-0.845,0.755-1.45,1.004c-0.604,0.249-1.395,0.374-2.37,0.374c-1.177,0-2.069-0.136-2.677-0.407
			c-0.608-0.272-1.089-0.625-1.442-1.06c-0.353-0.434-0.585-0.89-0.697-1.366c-0.163-0.706-0.244-1.748-0.244-3.127L995.305,34.26
			L995.305,34.26z"/>
		<path fill="#595959" d="M1007.762,46.583V34.26h5.237c1.316,0,2.273,0.111,2.87,0.332c0.597,0.222,1.074,0.615,1.434,1.182
			c0.358,0.565,0.538,1.213,0.538,1.941c0,0.925-0.272,1.688-0.815,2.291c-0.544,0.603-1.356,0.981-2.438,1.139
			c0.538,0.313,0.982,0.658,1.333,1.034c0.35,0.375,0.822,1.042,1.416,2l1.505,2.404h-2.976l-1.799-2.682
			c-0.639-0.958-1.076-1.562-1.312-1.812c-0.235-0.249-0.484-0.42-0.748-0.513c-0.264-0.092-0.681-0.139-1.253-0.139h-0.504v5.145
			h-2.488V46.583z M1010.251,39.472h1.841c1.193,0,1.938-0.051,2.236-0.151c0.297-0.101,0.529-0.274,0.697-0.521
			c0.168-0.246,0.252-0.555,0.252-0.924c0-0.415-0.11-0.75-0.332-1.005c-0.221-0.255-0.533-0.416-0.937-0.483
			c-0.202-0.028-0.808-0.042-1.816-0.042h-1.941L1010.251,39.472L1010.251,39.472z"/>
		<path fill="#595959" d="M1020.187,46.583V34.26h9.137v2.085h-6.649v2.731h6.187v2.077h-6.187v3.354h6.885v2.076L1020.187,46.583
			L1020.187,46.583z"/>
		<path fill="#595959" d="M1032.106,40.019v-2.362h2.362v2.362H1032.106z M1032.106,46.583v-2.362h2.362v2.362H1032.106z"/>
	</g>
	<path id="mergeButtonSelect" opacity="0" fill="#FFFFFF" d="M1032.77,80.833H859.728c-5.649,0-10.229-2.686-10.229-6v-45.5
		c0-3.314,4.58-6,10.229-6h173.042c5.649,0,10.229,2.686,10.229,6v45.5C1042.999,78.147,1038.42,80.833,1032.77,80.833z"/>
	<path id="dragButton" fill="#D8D8D8" stroke="#595959" stroke-miterlimit="3.8636" d="M818,80.833H716.5c-3.314,0-6-2.686-6-6
		v-45.5c0-3.314,2.686-6,6-6H818c3.314,0,6,2.686,6,6v45.5C824,78.147,821.313,80.833,818,80.833z"/>
	<text id="dragButtonOff_1_" transform="matrix(1 0 0 1 756.8135 67.6464)" opacity="0"><tspan x="0" y="0" fill="#595959" font-family="'ArialMT'" font-size="15.6457">O</tspan><tspan x="12.17" y="0" fill="#595959" font-family="'ArialMT'" font-size="15.6457">f</tspan><tspan x="16.234" y="0" fill="#595959" font-family="'ArialMT'" font-size="15.6457">f</tspan></text>
	
		<text id="dragButtonOn" transform="matrix(1 0 0 1 756.8136 67.6467)" fill="#595959" font-family="'ArialMT'" font-size="15.6457">On</text>
	<g>
		<path fill="#595959" d="M719.336,34.735h4.449c1.004,0,1.769,0.077,2.295,0.23c0.708,0.208,1.313,0.578,1.818,1.11
			c0.504,0.532,0.889,1.184,1.151,1.953c0.264,0.771,0.395,1.721,0.395,2.851c0,0.992-0.123,1.848-0.37,2.566
			c-0.302,0.877-0.731,1.587-1.291,2.13c-0.423,0.412-0.992,0.732-1.711,0.963c-0.537,0.17-1.256,0.255-2.155,0.255h-4.581
			L719.336,34.735L719.336,34.735z M721.771,36.776v7.987h1.817c0.68,0,1.171-0.039,1.473-0.115
			c0.395-0.099,0.723-0.267,0.982-0.502c0.261-0.236,0.474-0.624,0.638-1.164c0.165-0.54,0.247-1.276,0.247-2.209
			c0-0.932-0.082-1.647-0.247-2.146c-0.164-0.499-0.395-0.889-0.69-1.168c-0.297-0.279-0.672-0.469-1.127-0.567
			c-0.34-0.077-1.007-0.115-1.999-0.115L721.771,36.776L721.771,36.776z"/>
		<path fill="#595959" d="M731.517,46.794V34.735h5.125c1.288,0,2.225,0.108,2.809,0.325s1.052,0.602,1.402,1.155
			c0.352,0.554,0.526,1.188,0.526,1.9c0,0.904-0.266,1.652-0.798,2.241c-0.531,0.59-1.327,0.961-2.385,1.114
			c0.526,0.308,0.961,0.645,1.304,1.012c0.343,0.368,0.805,1.021,1.386,1.958l1.473,2.353h-2.912l-1.76-2.624
			c-0.626-0.938-1.054-1.528-1.283-1.772c-0.23-0.244-0.475-0.411-0.732-0.502c-0.258-0.09-0.666-0.136-1.226-0.136h-0.493v5.034
			L731.517,46.794L731.517,46.794z M733.953,39.836h1.801c1.168,0,1.897-0.049,2.188-0.147c0.29-0.099,0.518-0.269,0.683-0.511
			c0.164-0.241,0.247-0.543,0.247-0.904c0-0.406-0.108-0.733-0.325-0.983c-0.217-0.249-0.522-0.407-0.917-0.473
			c-0.197-0.027-0.79-0.041-1.777-0.041h-1.899v3.059H733.953z"/>
		<path fill="#595959" d="M754.549,46.794h-2.648l-1.053-2.739h-4.82l-0.995,2.739h-2.583l4.696-12.059h2.575L754.549,46.794z
			 M750.067,42.023l-1.662-4.475l-1.629,4.475H750.067z"/>
		<path fill="#595959" d="M761.45,42.36v-2.031h5.248v4.804c-0.51,0.493-1.249,0.928-2.217,1.304
			c-0.968,0.375-1.948,0.563-2.94,0.563c-1.262,0-2.36-0.265-3.299-0.794c-0.938-0.529-1.642-1.286-2.113-2.271
			s-0.708-2.055-0.708-3.212c0-1.256,0.264-2.372,0.79-3.348c0.526-0.977,1.297-1.725,2.312-2.246
			c0.773-0.4,1.735-0.601,2.887-0.601c1.497,0,2.667,0.314,3.509,0.942s1.383,1.496,1.624,2.604l-2.418,0.452
			c-0.17-0.592-0.489-1.06-0.958-1.402s-1.055-0.515-1.757-0.515c-1.063,0-1.909,0.338-2.537,1.012
			c-0.628,0.675-0.942,1.676-0.942,3.003c0,1.431,0.318,2.505,0.954,3.22c0.637,0.716,1.47,1.074,2.501,1.074
			c0.51,0,1.021-0.101,1.534-0.301s0.953-0.442,1.32-0.728v-1.53h-2.79V42.36z"/>
		<path fill="#595959" d="M774.553,42.36v-2.031h5.248v4.804c-0.51,0.493-1.249,0.928-2.217,1.304
			c-0.968,0.375-1.948,0.563-2.94,0.563c-1.262,0-2.36-0.265-3.299-0.794c-0.938-0.529-1.642-1.286-2.113-2.271
			s-0.708-2.055-0.708-3.212c0-1.256,0.264-2.372,0.79-3.348c0.526-0.977,1.297-1.725,2.312-2.246
			c0.773-0.4,1.735-0.601,2.887-0.601c1.497,0,2.667,0.314,3.509,0.942s1.383,1.496,1.624,2.604l-2.418,0.452
			c-0.17-0.592-0.489-1.06-0.958-1.402s-1.055-0.515-1.757-0.515c-1.063,0-1.909,0.338-2.537,1.012
			c-0.628,0.675-0.942,1.676-0.942,3.003c0,1.431,0.318,2.505,0.954,3.22c0.637,0.716,1.47,1.074,2.501,1.074
			c0.51,0,1.021-0.101,1.534-0.301s0.953-0.442,1.32-0.728v-1.53h-2.79V42.36z"/>
		<rect x="781.973" y="34.735" fill="#595959" width="2.435" height="12.059"/>
		<polygon fill="#595959" points="786.751,46.794 786.751,34.735 789.121,34.735 794.056,42.789 794.056,34.735 796.318,34.735 
			796.318,46.794 793.875,46.794 789.014,38.932 789.014,46.794 		"/>
		<path fill="#595959" d="M804.502,42.36v-2.031h5.248v4.804c-0.51,0.493-1.249,0.928-2.217,1.304
			c-0.968,0.375-1.948,0.563-2.94,0.563c-1.262,0-2.36-0.265-3.299-0.794c-0.938-0.529-1.642-1.286-2.113-2.271
			s-0.708-2.055-0.708-3.212c0-1.256,0.264-2.372,0.79-3.348c0.526-0.977,1.297-1.725,2.312-2.246
			c0.773-0.4,1.735-0.601,2.887-0.601c1.497,0,2.667,0.314,3.509,0.942s1.383,1.496,1.624,2.604l-2.418,0.452
			c-0.17-0.592-0.489-1.06-0.958-1.402s-1.055-0.515-1.757-0.515c-1.063,0-1.909,0.338-2.537,1.012
			c-0.628,0.675-0.942,1.676-0.942,3.003c0,1.431,0.318,2.505,0.954,3.22c0.637,0.716,1.47,1.074,2.501,1.074
			c0.51,0,1.021-0.101,1.534-0.301s0.953-0.442,1.32-0.728v-1.53h-2.79V42.36z"/>
		<path fill="#595959" d="M812.424,40.37v-2.312h2.312v2.312H812.424z M812.424,46.794v-2.312h2.312v2.312H812.424z"/>
	</g>
	<path id="dragButtonSelect" opacity="0" fill="#FFFFFF" d="M818,80.833H716.5c-3.314,0-6-2.686-6-6v-45.5c0-3.314,2.686-6,6-6H818
		c3.314,0,6,2.686,6,6v45.5C824,78.147,821.313,80.833,818,80.833z"/>
	<text transform="matrix(1 0 0 1 700.8862 12.5818)" fill="#231F20" font-family="'ArialMT'" font-size="10">Options</text>
</g>
<g>
	<polygon fill="none" stroke="#000000" stroke-miterlimit="10" points="688,88.666 4.666,88.666 4.666,15.936 45.856,15.936 
		45.856,4.666 688,4.666 	"/>
	<text transform="matrix(1 0 0 1 406.3277 74.1193)"><tspan x="0" y="0" font-family="'ArialMT'" font-size="12">Delineator Traffic Posts</tspan></text>
	
		<circle id="postsSelectorIcon" fill="#FFFFFF" stroke="#000000" stroke-width="3" stroke-miterlimit="3.8636" cx="388.511" cy="69.176" r="8.756"/>
	<rect id="postsSelector" x="372.255" y="56.418" opacity="0" fill="#FFFFFF" width="160.285" height="25.118"/>
	<text transform="matrix(1 0 0 1 406.2738 46.8301)"><tspan x="0" y="0" font-family="'ArialMT'" font-size="12">(FasTrak toll tag required beginning July 1, 2010)</tspan></text>
	<text transform="matrix(1 0 0 1 406.2738 32.4298)"><tspan x="0" y="0" font-family="'ArialMT'" font-size="12">High-Occupancy-Vehicle (HOV) Lane (peak hours)</tspan></text>
	<path id="hovSelectorIcon" fill="none" stroke="#231F20" stroke-width="3" stroke-miterlimit="3.864" d="M388.893,40.75
		l-11.638-6.261l11.638-6.267l11.638,6.267L388.893,40.75z"/>
	<rect id="hovSelector" x="372.255" y="21.169" opacity="0" fill="#FFFFFF" width="308.167" height="30.664"/>
	<text transform="matrix(1 0 0 1 36.1484 73.1733)" font-family="'ArialMT'" font-size="12">FasTrak - Only Lanes, peak hours (Cash/FasTrak off-peak)</text>
	
		<rect id="ftRedSelectorIcon" x="8.886" y="58.013" fill="#FFD7D4" stroke="#000000" stroke-miterlimit="3.8636" width="22.187" height="22.325"/>
	<rect id="ftRedSelector" x="8.886" y="58.013" opacity="0" fill="#FFFFFF" width="357.114" height="22.325"/>
	<text transform="matrix(1 0 0 1 35.9183 40.7499)" font-family="'ArialMT'" font-size="12">FasTrak - Only Lanes</text>
	
		<rect id="ftYellowSelectorIcon" x="8.886" y="25.452" fill="#FFFBD7" stroke="#000000" stroke-miterlimit="3.8636" width="22.601" height="22.601"/>
	<rect id="ftYellowSelector" x="8.886" y="25.452" opacity="0" fill="#FFFFFF" width="152.614" height="22.601"/>
	<text transform="matrix(1 0 0 1 8.8862 12.5818)" fill="#231F20" font-family="'ArialMT'" font-size="10">Legend</text>
</g>
</svg>
